<?xml version="1.0" encoding="utf-8"?>
<svg viewBox="0 4 185 33.7" width="437.061px" height="79.616px" xmlns="http://www.w3.org/2000/svg">
  <defs>
    <style>
      .cls-1 {
        fill: url(#Unbenannter_Verlauf_10-2);
      }

      .cls-2 {
        fill: #fff;
      }

      .cls-3 {
        fill: url(#Unbenannter_Verlauf_10-3);
      }

      .cls-4 {
        fill: url(#Unbenannter_Verlauf_10-5);
      }

      .cls-5 {
        fill: url(#Unbenannter_Verlauf_10-6);
      }

      .cls-6 {
        fill: url(#Unbenannter_Verlauf_10-8);
      }

      .cls-7 {
        fill: url(#Unbenannter_Verlauf_10-4);
      }

      .cls-8 {
        fill: #4f4f4f;
      }

      .cls-9 {
        fill: url(#Unbenannter_Verlauf_10-7);
      }

      .cls-10 {
        fill: url(#Unbenannter_Verlauf_10-9);
      }

      .cls-11 {
        fill: url(#Unbenannter_Verlauf_10);
      }
    </style>
  </defs>
  <g transform="matrix(0.14959700405597687, 0, 0, 0.14632099866867065, -41.54320526123048, -11.59653377532959)">
    <polygon class="cls-11" points="444.57 170.37 424.56 193.84 414.57 182.1 424.56 170.39 414.57 158.63 364.56 217.31 374.56 229.04 384.57 217.32 394.56 229.04 374.56 252.51 344.56 217.31 414.57 135.17 444.57 170.37" style="paint-order: stroke; fill: rgb(0, 0, 0);"/>
    <polygon class="cls-5" points="514.57 205.57 474.57 252.51 464.56 240.78 504.58 193.84 514.57 205.57" style="paint-order: stroke; fill: rgb(0, 0, 0);"/>
    <polygon class="cls-9" points="484.57 287.73 474.57 299.46 394.57 205.57 404.56 193.84 484.57 287.73" style="paint-order: stroke; fill: rgb(0, 0, 0);"/>
    <polygon class="cls-6" points="564.58 217.31 534.58 252.51 514.57 229.04 524.57 217.31 534.58 229.04 544.57 217.31 494.57 158.63 484.57 170.37 494.57 182.1 484.57 193.84 464.57 170.37 494.57 135.17 564.58 217.31" style="paint-order: stroke; fill: rgb(0, 0, 0);"/>
    <polygon class="cls-10" points="444.57 287.73 434.56 299.46 424.57 287.73 434.56 275.99 444.57 287.73" style="paint-order: stroke; fill: rgb(0, 0, 0);"/>
  </g>
  <g style="" transform="matrix(0.23412099480628967, 0, 0, 0.22899501025676727, 2.3451669216156006, -66.18150329589842)">
    <g>
      <path class="cls-8" d="M236.79,394.35h-9.28v-20.21h-18.91v20.21h-9.28v-46.69h9.28v19.93h18.91v-19.93h9.28v46.69Z" style="paint-order: stroke; fill: rgb(0, 0, 0);"/>
      <path class="cls-8" d="M237.29,394.85h-10.28v-20.21h-17.91v20.21h-10.28v-47.69h10.28v19.93h17.91v-19.93h10.28v47.69Zm-9.28-1h8.28v-45.69h-8.28v19.93h-19.91v-19.93h-8.28v45.69h8.28v-20.21h19.91v20.21Z" style="paint-order: stroke; fill: rgb(0, 0, 0);"/>
    </g>
    <g>
      <path class="cls-8" d="M284.36,394.35h-7.1c-.82,0-1.48-.19-1.97-.58s-.86-.87-1.09-1.46l-2.95-9.18h-17.19l-2.92,9.14c-.19,.52-.54,.99-1.07,1.42s-1.18,.65-1.95,.65h-7.21l17.02-46.69h9.42l17.02,46.69h-.01Zm-28.23-17.67h13.01l-4.75-14.77c-.28-.73-.57-1.58-.88-2.55s-.61-2.03-.91-3.18c-.28,1.15-.57,2.21-.88,3.2s-.59,1.84-.84,2.57l-4.75,14.73h0Z" style="paint-order: stroke; fill: rgb(0, 0, 0);"/>
      <path class="cls-8" d="M285.08,394.85h-7.82c-.93,0-1.7-.23-2.28-.69-.56-.44-.98-1-1.25-1.67l-2.85-8.86h-16.46l-2.81,8.79c-.22,.62-.64,1.17-1.23,1.66-.62,.51-1.38,.76-2.27,.76h-7.92l17.38-47.69h10.12l17.38,47.69h.01Zm-31.38-12.2h17.92l3.06,9.52c.19,.48,.5,.88,.92,1.22,.4,.31,.96,.47,1.66,.47h6.39l-16.65-45.69h-8.72l-16.65,45.69h6.49c.66,0,1.19-.18,1.63-.54,.46-.37,.76-.78,.92-1.21l3.02-9.47h.01Zm16.13-5.46h-14.38l4.96-15.38c.26-.74,.54-1.58,.84-2.56,.3-.97,.59-2.04,.87-3.17l.47-1.9,.5,1.89c.3,1.14,.61,2.2,.91,3.16,.3,.96,.59,1.8,.87,2.52l4.97,15.45h-.01Zm-13.01-1.01h11.64l-4.54-14.11c-.27-.71-.57-1.57-.88-2.55-.14-.45-.28-.92-.42-1.4-.14,.49-.28,.97-.42,1.42-.31,.99-.59,1.85-.85,2.59l-4.53,14.06h0Z" style="paint-order: stroke; fill: rgb(0, 0, 0);"/>
    </g>
    <g>
      <path class="cls-8" d="M315.93,379.02c.33-.82,.66-1.62,.98-2.41s.69-1.54,1.09-2.27l14.38-25.24c.19-.35,.38-.63,.58-.83s.42-.34,.65-.42,.5-.13,.81-.16,.66-.04,1.05-.04h6.96v46.69h-8.12v-29.21c0-.63,.02-1.32,.05-2.06s.09-1.49,.16-2.27l-14.73,26.09c-.73,1.36-1.79,2.04-3.2,2.04h-1.3c-1.43,0-2.51-.68-3.23-2.04l-14.91-26.23c.09,.8,.16,1.58,.21,2.34s.07,1.47,.07,2.13v29.21h-8.16v-46.69h7c.4,0,.74,.01,1.04,.04s.56,.08,.81,.18,.47,.23,.67,.42,.39,.46,.58,.81l14.48,25.31c.8,1.48,1.49,3.01,2.07,4.61h0Z" style="paint-order: stroke; fill: rgb(0, 0, 0);"/>
      <path class="cls-8" d="M342.94,394.85h-9.12v-29.71c0-.64,.02-1.33,.05-2.08v-.07l-13.64,24.16c-.81,1.52-2.04,2.29-3.63,2.29h-1.3c-1.62,0-2.86-.78-3.68-2.3l-13.76-24.21v.05c.05,.77,.07,1.49,.07,2.16v29.71h-9.16v-47.69h7.5c.41,0,.77,.01,1.08,.04,.34,.03,.66,.1,.95,.21,.31,.12,.59,.29,.83,.52,.24,.23,.46,.53,.68,.94l14.48,25.3c.61,1.13,1.16,2.3,1.65,3.5,.17-.42,.34-.83,.51-1.24,.33-.8,.71-1.58,1.11-2.32l14.38-25.25c.21-.39,.42-.7,.66-.93,.25-.25,.53-.43,.84-.54,.27-.1,.59-.16,.94-.18,.32-.02,.68-.04,1.09-.04h7.46v47.69h0Zm-8.12-1.01h7.12v-45.69h-6.46c-.38,0-.72,.01-1.02,.03-.26,.02-.49,.06-.68,.13-.16,.06-.32,.16-.46,.3-.16,.16-.33,.4-.49,.71l-14.39,25.25c-.38,.7-.74,1.45-1.06,2.21-.33,.78-.65,1.58-.98,2.4l-.48,1.21-.45-1.22c-.57-1.56-1.26-3.09-2.04-4.54l-14.48-25.3c-.17-.31-.33-.54-.49-.69-.15-.14-.32-.25-.5-.32-.2-.08-.43-.12-.67-.14-.28-.02-.61-.03-1-.03h-6.5v45.69h7.16v-28.71c0-.65-.02-1.35-.07-2.1s-.12-1.52-.21-2.31l-.29-2.45,16.13,28.37c.64,1.21,1.56,1.79,2.8,1.79h1.3c1.22,0,2.12-.58,2.76-1.77l15.88-28.12-.21,2.32c-.07,.77-.12,1.52-.16,2.25-.03,.73-.05,1.41-.05,2.03v28.71h-.01Z" style="paint-order: stroke; fill: rgb(0, 0, 0);"/>
    </g>
    <g>
      <path class="cls-8" d="M378.86,379.02c.33-.82,.66-1.62,.98-2.41s.69-1.54,1.09-2.27l14.38-25.24c.19-.35,.38-.63,.58-.83s.42-.34,.65-.42,.5-.13,.81-.16,.66-.04,1.05-.04h6.96v46.69h-8.12v-29.21c0-.63,.02-1.32,.05-2.06s.09-1.49,.16-2.27l-14.73,26.09c-.73,1.36-1.79,2.04-3.2,2.04h-1.3c-1.43,0-2.51-.68-3.23-2.04l-14.91-26.23c.09,.8,.16,1.58,.21,2.34s.07,1.47,.07,2.13v29.21h-8.16v-46.69h7c.4,0,.74,.01,1.04,.04s.56,.08,.81,.18,.47,.23,.67,.42,.39,.46,.58,.81l14.48,25.31c.8,1.48,1.49,3.01,2.07,4.61h0Z" style="paint-order: stroke; fill: rgb(0, 0, 0);"/>
      <path class="cls-8" d="M405.87,394.85h-9.12v-29.71c0-.64,.02-1.33,.05-2.08v-.07l-13.64,24.16c-.81,1.52-2.04,2.29-3.63,2.29h-1.3c-1.62,0-2.86-.78-3.68-2.3l-13.76-24.21v.05c.05,.77,.07,1.49,.07,2.16v29.71h-9.16v-47.69h7.5c.41,0,.77,.01,1.08,.04,.34,.03,.66,.1,.95,.21,.31,.12,.59,.29,.83,.52,.24,.23,.46,.53,.68,.94l14.48,25.3c.61,1.13,1.16,2.3,1.65,3.5,.17-.42,.34-.83,.51-1.24,.33-.8,.71-1.58,1.11-2.32l14.38-25.25c.21-.39,.42-.7,.66-.93,.25-.25,.53-.43,.84-.54,.27-.1,.59-.16,.94-.18,.32-.02,.68-.04,1.09-.04h7.46v47.69h0Zm-8.12-1.01h7.12v-45.69h-6.46c-.38,0-.72,.01-1.02,.03-.26,.02-.49,.06-.68,.13-.16,.06-.32,.16-.46,.3-.16,.16-.33,.4-.49,.71l-14.39,25.25c-.38,.7-.74,1.45-1.06,2.21-.33,.78-.65,1.58-.98,2.4l-.48,1.21-.45-1.22c-.57-1.56-1.26-3.09-2.04-4.54l-14.48-25.3c-.17-.31-.33-.54-.49-.69-.15-.14-.32-.25-.5-.32-.2-.08-.43-.12-.67-.14-.28-.02-.61-.03-1-.03h-6.5v45.69h7.16v-28.71c0-.65-.02-1.35-.07-2.1s-.12-1.52-.21-2.31l-.29-2.45,16.13,28.37c.64,1.21,1.56,1.79,2.8,1.79h1.3c1.22,0,2.12-.58,2.76-1.77l15.88-28.12-.21,2.32c-.07,.77-.12,1.52-.16,2.25-.03,.73-.05,1.41-.05,2.03v28.71h-.01Z" style="paint-order: stroke; fill: rgb(0, 0, 0);"/>
    </g>
    <g>
      <path class="cls-8" d="M442.88,347.66v7.35h-19.2v12.34h14.94v7.07h-14.94v12.59h19.23l-.04,7.35h-28.48v-46.69h28.49Z" style="paint-order: stroke; fill: rgb(0, 0, 0);"/>
      <path class="cls-8" d="M443.38,394.85h-29.47v-47.69h29.48v8.35h-19.2v11.34h14.94v8.07h-14.94v11.59h19.23l-.04,8.35h0Zm-28.47-1.01h27.48l.03-6.35h-19.23v-13.59h14.94v-6.07h-14.94v-13.34h19.2v-6.35h-27.48v45.69h0Z" style="paint-order: stroke; fill: rgb(0, 0, 0);"/>
    </g>
    <g>
      <path class="cls-8" d="M458.81,376.38v17.96h-9.28v-46.69h14.06c3.12,0,5.79,.33,8.02,1s4.05,1.6,5.47,2.79,2.46,2.62,3.11,4.29,.98,3.49,.98,5.48c0,1.52-.21,2.97-.63,4.34s-1.04,2.62-1.85,3.76-1.8,2.14-2.97,3.02-2.52,1.59-4.04,2.13c.59,.33,1.14,.72,1.65,1.18s1,1.01,1.44,1.67l10.44,17.02h-8.33c-1.48,0-2.61-.62-3.41-1.86l-8.51-14.55c-.35-.56-.74-.96-1.18-1.2s-1.05-.35-1.85-.35h-3.12Zm0-6.56h4.71c1.5,0,2.79-.2,3.88-.6s1.99-.95,2.69-1.65,1.22-1.54,1.56-2.51,.51-2.03,.51-3.18c0-2.27-.7-4.03-2.11-5.26s-3.56-1.85-6.47-1.85h-4.78v15.05h.01Z" style="paint-order: stroke; fill: rgb(0, 0, 0);"/>
      <path class="cls-8" d="M486.1,394.85h-9.23c-1.65,0-2.94-.7-3.83-2.09l-8.52-14.57c-.3-.47-.63-.82-.98-1.01-.36-.19-.9-.29-1.61-.29h-2.63v17.96h-10.28v-47.69h14.56c3.15,0,5.9,.34,8.16,1.02,2.28,.68,4.18,1.66,5.65,2.89,1.48,1.24,2.57,2.75,3.25,4.49,.68,1.71,1.02,3.62,1.02,5.67,0,1.57-.22,3.08-.66,4.49-.44,1.42-1.08,2.73-1.92,3.9-.83,1.17-1.87,2.23-3.08,3.13-.96,.72-2.04,1.33-3.24,1.83,.3,.21,.6,.45,.88,.7,.54,.48,1.06,1.08,1.52,1.76l10.92,17.8h.02Zm-27.8-18.95h3.63c.89,0,1.57,.13,2.08,.41,.51,.27,.97,.74,1.36,1.37l8.52,14.57c.69,1.08,1.67,1.62,2.98,1.62h7.44l-9.97-16.25c-.41-.6-.87-1.13-1.35-1.56-.49-.43-1.01-.81-1.56-1.12l-.96-.54,1.04-.37c1.47-.52,2.78-1.21,3.91-2.06,1.12-.84,2.09-1.82,2.86-2.91s1.37-2.31,1.78-3.62c.41-1.32,.61-2.73,.61-4.19,0-1.92-.32-3.7-.95-5.3-.62-1.58-1.62-2.96-2.97-4.09-1.36-1.14-3.14-2.05-5.29-2.7-2.17-.65-4.82-.98-7.87-.98h-13.56v45.69h8.28v-17.96h-.01Zm5.21-5.58h-5.21v-16.05h5.28c3.02,0,5.3,.66,6.8,1.97,1.51,1.32,2.28,3.22,2.28,5.63,0,1.2-.18,2.33-.54,3.35-.36,1.04-.93,1.95-1.68,2.7s-1.72,1.35-2.87,1.77c-1.14,.42-2.5,.63-4.06,.63h0Zm-4.21-1h4.21c1.43,0,2.68-.19,3.71-.57,1.02-.37,1.86-.89,2.51-1.54s1.13-1.43,1.45-2.33c.32-.92,.48-1.93,.48-3.02,0-2.14-.63-3.74-1.94-4.88s-3.37-1.72-6.14-1.72h-4.28v14.05h0Z" style="paint-order: stroke; fill: rgb(0, 0, 0);"/>
    </g>
    <g>
      <path class="cls-8" d="M514.07,356.45c-.23,.47-.51,.8-.83,1s-.71,.3-1.18,.3-.93-.16-1.44-.49-1.12-.69-1.81-1.07-1.49-.74-2.41-1.07-1.97-.49-3.16-.49c-2.11,0-3.7,.52-4.76,1.55s-1.6,2.38-1.6,4.04c0,1.05,.29,1.93,.86,2.62s1.34,1.29,2.29,1.79,2.03,.96,3.23,1.35,2.44,.83,3.71,1.28,2.5,1,3.71,1.62,2.29,1.4,3.23,2.34,1.71,2.09,2.29,3.45,.86,3.01,.86,4.96c0,2.11-.35,4.09-1.04,5.94s-1.71,3.46-3.04,4.83-2.97,2.46-4.9,3.25-4.14,1.2-6.63,1.2c-1.41,0-2.81-.15-4.2-.44s-2.74-.71-4.03-1.25-2.51-1.18-3.66-1.93-2.16-1.59-3.02-2.53l2.74-4.39c.21-.35,.5-.63,.86-.84s.76-.32,1.18-.32c.56,0,1.14,.22,1.74,.65s1.29,.91,2.09,1.44,1.72,1.01,2.78,1.44,2.31,.65,3.76,.65c2.11,0,3.75-.54,4.92-1.62s1.76-2.67,1.76-4.78c0-1.2-.29-2.17-.86-2.92s-1.33-1.38-2.27-1.88-2.01-.94-3.22-1.3-2.44-.76-3.69-1.18-2.48-.93-3.69-1.53-2.28-1.39-3.22-2.37-1.69-2.2-2.27-3.66-.86-3.26-.86-5.41c0-1.71,.33-3.38,.98-5.01s1.62-3.08,2.88-4.34,2.82-2.28,4.66-3.04,3.94-1.14,6.31-1.14c2.67,0,5.15,.43,7.44,1.3s4.24,2.09,5.85,3.66l-2.36,4.36,.02-.02Z" style="paint-order: stroke; fill: rgb(0, 0, 0);"/>
      <path class="cls-8" d="M501.45,395.34c-1.43,0-2.88-.15-4.3-.45-1.42-.3-2.8-.73-4.12-1.28-1.31-.55-2.57-1.21-3.74-1.98-1.18-.77-2.23-1.65-3.12-2.61l-.26-.28,2.94-4.72c.25-.42,.6-.76,1.03-1.01,1.01-.59,2.26-.51,3.46,.36,.59,.43,1.28,.91,2.07,1.43,.77,.51,1.67,.98,2.69,1.4,.99,.41,2.19,.61,3.57,.61,1.97,0,3.51-.5,4.58-1.49,1.06-.97,1.6-2.46,1.6-4.41,0-1.08-.25-1.96-.76-2.61-.53-.69-1.24-1.28-2.11-1.74-.9-.49-1.96-.91-3.12-1.26-1.21-.36-2.45-.76-3.71-1.18-1.27-.43-2.53-.95-3.75-1.55-1.25-.62-2.38-1.45-3.36-2.48-.98-1.03-1.78-2.31-2.37-3.82-.59-1.5-.9-3.39-.9-5.6,0-1.77,.34-3.52,1.02-5.2,.68-1.68,1.69-3.2,2.99-4.51s2.93-2.37,4.82-3.15,4.08-1.18,6.5-1.18c2.72,0,5.28,.45,7.61,1.33,2.34,.89,4.37,2.15,6.02,3.77l.27,.26-2.53,4.68c-.27,.55-.61,.95-1,1.19-.78,.49-1.94,.58-3.15-.19-.51-.32-1.1-.68-1.79-1.06-.66-.37-1.45-.72-2.33-1.04-.86-.31-1.86-.46-3-.46-1.97,0-3.45,.47-4.42,1.41s-1.45,2.15-1.45,3.68c0,.94,.24,1.7,.75,2.3,.53,.64,1.25,1.2,2.13,1.67,.92,.49,1.98,.93,3.16,1.32,1.21,.4,2.45,.83,3.72,1.29,1.28,.46,2.55,1.02,3.77,1.64,1.25,.64,2.38,1.46,3.36,2.43,.99,.98,1.8,2.19,2.39,3.61,.6,1.42,.9,3.15,.9,5.15,0,2.16-.36,4.22-1.07,6.12-.71,1.91-1.77,3.59-3.15,5.01s-3.08,2.55-5.07,3.37-4.28,1.23-6.82,1.23h.05Zm-14.28-6.72c.78,.79,1.67,1.53,2.67,2.18,1.12,.73,2.32,1.37,3.58,1.89,1.25,.52,2.58,.93,3.93,1.22,1.35,.28,2.73,.43,4.1,.43,2.41,0,4.57-.39,6.44-1.16,1.86-.77,3.46-1.82,4.74-3.14s2.27-2.88,2.93-4.66c.67-1.79,1.01-3.73,1.01-5.77,0-1.87-.28-3.47-.82-4.76-.55-1.29-1.28-2.4-2.18-3.28-.91-.9-1.96-1.65-3.11-2.25-1.18-.61-2.41-1.14-3.65-1.59-1.26-.46-2.49-.88-3.7-1.28-1.23-.41-2.34-.87-3.31-1.39-1-.53-1.82-1.18-2.44-1.92-.65-.78-.98-1.77-.98-2.94,0-1.8,.59-3.28,1.75-4.4s2.88-1.69,5.11-1.69c1.25,0,2.37,.18,3.33,.52,.94,.34,1.77,.71,2.48,1.11,.7,.39,1.31,.75,1.83,1.09,.89,.57,1.63,.48,2.08,.19,.24-.15,.45-.42,.65-.8h0l2.17-4.04c-1.51-1.39-3.33-2.5-5.41-3.29-2.22-.84-4.66-1.27-7.26-1.27-2.29,0-4.35,.37-6.12,1.1s-3.28,1.72-4.5,2.93-2.14,2.62-2.77,4.17c-.63,1.56-.95,3.18-.95,4.82,0,2.08,.28,3.84,.83,5.23s1.28,2.56,2.17,3.5,1.93,1.7,3.08,2.27c1.18,.58,2.4,1.09,3.63,1.5,1.25,.42,2.47,.81,3.68,1.17,1.23,.37,2.35,.82,3.31,1.34,1,.54,1.81,1.21,2.43,2.02,.64,.84,.96,1.92,.96,3.22,0,2.25-.65,3.98-1.92,5.15-1.26,1.16-3.03,1.75-5.26,1.75-1.51,0-2.84-.23-3.95-.69-1.08-.44-2.04-.94-2.86-1.49-.8-.53-1.51-1.02-2.11-1.45-.88-.64-1.7-.7-2.37-.31-.29,.17-.52,.39-.68,.67l-2.54,4.07v.03Z" style="paint-order: stroke; fill: rgb(0, 0, 0);"/>
    </g>
    <g>
      <path class="cls-8" d="M553.55,347.66v7.52h-12.59v39.16h-9.21v-39.16h-12.59v-7.52h34.39Z" style="paint-order: stroke; fill: rgb(0, 0, 0);"/>
      <path class="cls-8" d="M541.47,394.85h-10.21v-39.16h-12.59v-8.52h35.38v8.52h-12.59v39.16h.01Zm-9.21-1h8.21v-39.16h12.59v-6.52h-33.38v6.52h12.59v39.16h-.01Z" style="paint-order: stroke; fill: rgb(0, 0, 0);"/>
    </g>
    <g>
      <path class="cls-8" d="M577.7,386.89c1.64,0,3.1-.27,4.38-.81s2.36-1.3,3.23-2.29,1.55-2.18,2.02-3.59,.7-2.98,.7-4.71v-27.84h9.21v27.84c0,2.81-.45,5.4-1.35,7.77s-2.2,4.41-3.88,6.13-3.74,3.06-6.15,4.03-5.13,1.44-8.16,1.44-5.75-.48-8.17-1.44-4.48-2.3-6.17-4.03-2.98-3.77-3.88-6.13-1.35-4.96-1.35-7.77v-27.84h9.25v27.84c0,1.73,.23,3.3,.7,4.71s1.14,2.6,2.02,3.59,1.96,1.75,3.23,2.29,2.74,.81,4.38,.81h-.01Zm-2.85-46.41c0,.63-.13,1.23-.39,1.79s-.61,1.05-1.05,1.48-.96,.76-1.55,1-1.21,.37-1.86,.37c-.61,0-1.2-.12-1.76-.37s-1.05-.58-1.48-1-.76-.91-1.02-1.48-.39-1.16-.39-1.79,.13-1.24,.39-1.81,.6-1.08,1.02-1.51,.91-.78,1.48-1.04,1.15-.39,1.76-.39c.66,0,1.28,.13,1.86,.39s1.1,.6,1.55,1.04,.8,.94,1.05,1.51,.39,1.18,.39,1.81Zm15.12,0c0,.63-.12,1.23-.37,1.79s-.59,1.05-1.02,1.48-.94,.76-1.51,1-1.19,.37-1.85,.37-1.27-.12-1.85-.37-1.08-.58-1.51-1-.77-.91-1.02-1.48-.37-1.16-.37-1.79,.12-1.24,.37-1.81,.59-1.08,1.02-1.51,.94-.78,1.51-1.04,1.19-.39,1.85-.39,1.27,.13,1.85,.39,1.08,.6,1.51,1.04,.77,.94,1.02,1.51,.37,1.18,.37,1.81Z" style="paint-order: stroke; fill: rgb(0, 0, 0);"/>
      <path class="cls-8" d="M577.7,395.37c-3.07,0-5.88-.5-8.36-1.48-2.48-.98-4.61-2.38-6.34-4.14s-3.07-3.89-3.99-6.31c-.92-2.41-1.39-5.09-1.39-7.95v-28.34h10.25v28.34c0,1.67,.23,3.2,.68,4.55,.44,1.33,1.09,2.48,1.92,3.41,.83,.92,1.85,1.65,3.06,2.16s2.62,.77,4.18,.77,2.97-.26,4.18-.77c1.2-.51,2.23-1.23,3.06-2.16s1.48-2.08,1.92-3.41c.45-1.35,.68-2.88,.68-4.55v-28.34h10.21v28.34c0,2.86-.47,5.53-1.39,7.95s-2.27,4.54-3.99,6.31c-1.73,1.76-3.86,3.16-6.33,4.14-2.46,.98-5.27,1.48-8.34,1.48h0Zm-19.08-47.21v27.34c0,2.74,.44,5.29,1.32,7.59,.87,2.29,2.14,4.3,3.78,5.96,1.63,1.66,3.65,2.98,6,3.91,2.36,.93,5.04,1.41,7.99,1.41s5.63-.47,7.97-1.41c2.34-.93,4.35-2.25,5.98-3.91,1.63-1.67,2.9-3.67,3.78-5.96,.88-2.3,1.32-4.85,1.32-7.59v-27.34h-8.21v27.34c0,1.78-.25,3.42-.73,4.87-.49,1.46-1.2,2.73-2.12,3.76-.92,1.04-2.07,1.85-3.41,2.41-1.33,.56-2.87,.85-4.57,.85s-3.24-.29-4.57-.85c-1.34-.57-2.49-1.38-3.41-2.41s-1.63-2.3-2.12-3.76c-.48-1.45-.73-3.09-.73-4.87v-27.34h-8.27Zm26.61-2.53c-.72,0-1.41-.14-2.04-.41-.63-.27-1.19-.64-1.66-1.1-.48-.46-.86-1.02-1.13-1.63-.27-.62-.41-1.29-.41-1.99s.14-1.37,.41-2.01c.27-.63,.65-1.19,1.13-1.67s1.03-.86,1.66-1.14c1.27-.57,2.83-.57,4.1,0,.63,.28,1.19,.67,1.66,1.14s.86,1.04,1.13,1.67c.27,.63,.41,1.31,.41,2.01s-.14,1.37-.41,1.99-.65,1.17-1.13,1.63-1.04,.83-1.66,1.1c-.63,.27-1.32,.41-2.04,.41h-.02Zm0-9.39c-.58,0-1.13,.12-1.64,.34-.52,.23-.97,.55-1.36,.93s-.69,.84-.91,1.36c-.22,.51-.33,1.05-.33,1.61s.11,1.1,.33,1.59c.22,.5,.53,.94,.91,1.32,.39,.38,.84,.68,1.36,.9,1.02,.44,2.28,.44,3.3,0,.52-.22,.97-.52,1.36-.9,.38-.38,.69-.82,.91-1.32s.33-1.03,.33-1.59-.11-1.1-.33-1.61c-.22-.51-.53-.97-.91-1.36s-.85-.7-1.36-.93c-.51-.23-1.06-.34-1.64-.34h-.02Zm-15.22,9.39c-.68,0-1.33-.14-1.96-.41-.62-.27-1.17-.64-1.63-1.11s-.84-1.01-1.12-1.62c-.29-.62-.43-1.3-.43-2s.14-1.38,.43-2.02c.28-.62,.66-1.18,1.12-1.66,.46-.48,1.01-.86,1.63-1.14,1.29-.59,2.78-.55,4.03,0,.64,.28,1.21,.66,1.69,1.14,.49,.48,.88,1.04,1.16,1.67,.29,.64,.43,1.31,.43,2.02s-.15,1.38-.43,2-.67,1.17-1.17,1.63c-.49,.46-1.06,.83-1.7,1.1-.64,.27-1.34,.41-2.06,.41h.01Zm0-9.4c-.53,0-1.06,.12-1.55,.34-.5,.23-.95,.54-1.33,.93-.38,.39-.69,.85-.92,1.37-.23,.51-.34,1.05-.34,1.61s.12,1.09,.34,1.58c.23,.5,.54,.95,.92,1.33s.82,.68,1.32,.9c1.04,.45,2.23,.42,3.23,0,.53-.22,1-.53,1.4-.9,.4-.38,.71-.82,.94-1.32,.23-.49,.34-1.03,.34-1.58s-.12-1.1-.34-1.61c-.23-.51-.55-.97-.95-1.36-.4-.39-.87-.71-1.4-.94-.52-.23-1.08-.34-1.66-.34h0Z" style="paint-order: stroke; fill: rgb(0, 0, 0);"/>
    </g>
    <g>
      <path class="cls-8" d="M633.6,383.03c.49,0,.91,.19,1.27,.56l3.69,3.97c-1.69,2.37-3.8,4.17-6.35,5.41s-5.56,1.86-9.05,1.86c-3.16,0-6.01-.59-8.54-1.78s-4.68-2.84-6.45-4.96-3.13-4.64-4.08-7.56-1.42-6.11-1.42-9.58,.51-6.7,1.53-9.62,2.46-5.43,4.31-7.54,4.07-3.75,6.64-4.92,5.41-1.76,8.51-1.76,5.92,.56,8.33,1.67,4.43,2.58,6.05,4.41l-3.09,4.32c-.21,.26-.45,.49-.72,.7s-.65,.32-1.14,.32-.97-.19-1.42-.56-1.02-.79-1.69-1.23-1.51-.86-2.51-1.23-2.3-.56-3.87-.56c-1.71,0-3.27,.36-4.68,1.07s-2.61,1.76-3.62,3.13-1.79,3.05-2.34,5.03-.83,4.24-.83,6.77,.3,4.83,.91,6.82,1.44,3.67,2.48,5.04,2.27,2.41,3.67,3.13,2.92,1.07,4.54,1.07c.96,0,1.83-.05,2.6-.16s1.49-.29,2.16-.56,1.29-.62,1.88-1.04,1.17-.95,1.76-1.58c.23-.19,.47-.35,.72-.47s.5-.19,.76-.19v.02Z" style="paint-order: stroke; fill: rgb(0, 0, 0);"/>
      <path class="cls-8" d="M623.16,395.34c-3.22,0-6.17-.61-8.75-1.82-2.59-1.21-4.81-2.92-6.62-5.09-1.8-2.16-3.21-4.76-4.17-7.72-.96-2.95-1.45-6.23-1.45-9.73s.52-6.82,1.56-9.78,2.52-5.56,4.4-7.71c1.89-2.15,4.18-3.85,6.81-5.05,2.63-1.2,5.56-1.8,8.71-1.8s6.07,.58,8.54,1.72,4.56,2.66,6.21,4.54l.26,.3-3.33,4.65c-.25,.31-.52,.57-.82,.81-.72,.56-2.1,.64-3.19-.25-.44-.36-1-.77-1.65-1.2-.63-.42-1.44-.82-2.41-1.18-.95-.35-2.19-.53-3.69-.53-1.62,0-3.12,.34-4.45,1.02-1.33,.68-2.49,1.68-3.44,2.98-.97,1.32-1.73,2.95-2.26,4.87-.54,1.93-.81,4.16-.81,6.63s.3,4.74,.89,6.67c.59,1.93,1.4,3.57,2.4,4.89,.99,1.3,2.17,2.31,3.5,2.99,1.33,.67,2.78,1.02,4.31,1.02,.93,0,1.79-.05,2.53-.15,.73-.1,1.42-.28,2.04-.53,.63-.25,1.23-.58,1.78-.98,.56-.4,1.12-.91,1.68-1.52,.31-.26,.58-.43,.86-.58,.91-.48,1.93-.26,2.62,.47l3.97,4.27-.24,.33c-1.73,2.42-3.93,4.3-6.53,5.57-2.6,1.27-5.72,1.91-9.27,1.91v-.02Zm.5-47.71c-3.01,0-5.8,.58-8.3,1.71s-4.68,2.75-6.48,4.8-3.22,4.53-4.21,7.38c-1,2.85-1.5,6.03-1.5,9.45s.47,6.57,1.4,9.43c.92,2.84,2.27,5.33,3.99,7.39,1.71,2.05,3.83,3.68,6.28,4.82,2.45,1.15,5.26,1.73,8.33,1.73,3.4,0,6.37-.61,8.83-1.81,2.34-1.14,4.33-2.8,5.92-4.93l-3.41-3.67c-.39-.41-.9-.54-1.42-.27-.22,.11-.43,.25-.64,.42-.55,.6-1.17,1.16-1.78,1.6-.62,.44-1.28,.81-1.99,1.09-.7,.28-1.47,.48-2.28,.59-.79,.11-1.69,.16-2.67,.16-1.69,0-3.29-.38-4.76-1.13s-2.76-1.85-3.85-3.27c-1.07-1.41-1.93-3.16-2.56-5.2-.62-2.03-.94-4.37-.94-6.97s.28-4.89,.84-6.9c.56-2.03,1.38-3.78,2.42-5.19,1.05-1.43,2.33-2.53,3.8-3.28s3.12-1.13,4.9-1.13c1.62,0,2.98,.2,4.04,.59,1.04,.39,1.92,.82,2.62,1.28,.68,.45,1.26,.88,1.73,1.26,.74,.61,1.58,.52,1.94,.24,.24-.19,.46-.4,.64-.63l2.84-3.97c-1.52-1.63-3.41-2.98-5.61-4-2.34-1.08-5.07-1.62-8.12-1.62v.03Z" style="paint-order: stroke; fill: rgb(0, 0, 0);"/>
    </g>
    <g>
      <path class="cls-8" d="M651.92,367.03h1.48c1.41,0,2.4-.47,2.99-1.41l9.18-16.07c.52-.7,1.08-1.2,1.71-1.48s1.38-.42,2.27-.42h8.05l-12.02,19.23c-.87,1.24-1.79,2.12-2.78,2.64,.7,.26,1.34,.63,1.9,1.12s1.1,1.11,1.62,1.86l12.23,21.83h-8.19c-1.03,0-1.8-.16-2.3-.47s-.93-.73-1.28-1.25l-9.32-17.02c-.35-.56-.77-.97-1.25-1.23s-1.14-.39-1.99-.39h-2.29v20.36h-9.25v-46.69h9.25v19.39Z" style="paint-order: stroke; fill: rgb(0, 0, 0);"/>
      <path class="cls-8" d="M679.39,394.85h-9.04c-1.14,0-1.98-.18-2.57-.55-.56-.35-1.04-.82-1.43-1.39l-9.34-17.06c-.29-.46-.65-.82-1.05-1.03-.41-.22-.99-.33-1.75-.33h-1.79v20.36h-10.25v-47.69h10.25v19.37h.98c1.23,0,2.07-.38,2.56-1.17l9.17-16.05c.6-.82,1.24-1.37,1.93-1.68,.68-.31,1.52-.47,2.47-.47h8.95l-12.5,20c-.68,.98-1.4,1.74-2.15,2.3,.42,.23,.81,.5,1.18,.82,.59,.52,1.16,1.17,1.7,1.96l12.68,22.62h0Zm-27.97-21.37h2.79c.94,0,1.66,.15,2.22,.45,.56,.3,1.04,.77,1.44,1.41l9.33,17.04c.29,.41,.67,.79,1.11,1.06,.42,.26,1.11,.4,2.04,.4h7.34l-11.82-21.09c-.46-.67-.98-1.27-1.51-1.73-.51-.45-1.1-.8-1.74-1.03l-1.06-.39,1-.52c.91-.48,1.78-1.31,2.6-2.48l11.53-18.44h-7.15c-.81,0-1.51,.13-2.06,.38-.54,.24-1.05,.69-1.51,1.32l-9.14,16.02c-.69,1.11-1.84,1.66-3.42,1.66h-1.98v-19.37h-8.25v45.69h8.25v-20.38Z" style="paint-order: stroke; fill: rgb(0, 0, 0);"/>
    </g>
    <g>
      <path class="cls-8" d="M711.3,347.66v7.35h-19.2v12.34h14.94v7.07h-14.94v12.59h19.23l-.04,7.35h-28.48v-46.69h28.49Z" style="paint-order: stroke; fill: rgb(0, 0, 0);"/>
      <path class="cls-8" d="M711.8,394.85h-29.47v-47.69h29.48v8.35h-19.2v11.34h14.94v8.07h-14.94v11.59h19.23l-.04,8.35h0Zm-28.47-1.01h27.48l.03-6.35h-19.23v-13.59h14.94v-6.07h-14.94v-13.34h19.2v-6.35h-27.48v45.69h0Z" style="paint-order: stroke; fill: rgb(0, 0, 0);"/>
    </g>
  </g>
  <g style="" transform="matrix(0.23417600989341736, 0, 0, 0.22904999554157257, 2.10568904876709, -69.38655853271483)">
    <path class="cls-8" d="M213.07,423.5v2.98c0,1.27-.25,2.38-.74,3.35s-1.19,1.71-2.09,2.24-1.95,.79-3.13,.79-2.26-.25-3.17-.74-1.62-1.2-2.12-2.1-.75-1.96-.75-3.15v-5.03c0-1.27,.25-2.38,.74-3.34s1.19-1.71,2.09-2.23,1.95-.79,3.13-.79c.98,0,1.88,.21,2.7,.63s1.51,1.01,2.07,1.78,.93,1.65,1.12,2.66h-2.59c-.14-.57-.38-1.06-.71-1.47s-.73-.72-1.18-.94-.92-.32-1.41-.32c-.7,0-1.32,.17-1.85,.5s-.94,.81-1.23,1.41-.43,1.31-.43,2.12v5.03c0,.73,.15,1.38,.45,1.93s.72,.98,1.26,1.28,1.17,.46,1.88,.46,1.32-.16,1.85-.47,.94-.78,1.23-1.38,.43-1.32,.43-2.14v-.74h-3.46v-2.29h5.91v-.03Z" style="paint-order: stroke; fill: rgb(0, 0, 0);"/>
    <path class="cls-8" d="M230.93,432.07c-.91-.52-1.61-1.25-2.1-2.2s-.74-2.05-.74-3.3v-4.83c0-1.25,.25-2.35,.74-3.3s1.2-1.68,2.1-2.2,1.95-.78,3.14-.78,2.23,.26,3.14,.78,1.61,1.25,2.1,2.2,.74,2.05,.74,3.3v4.83c0,1.25-.25,2.35-.74,3.3s-1.2,1.68-2.1,2.2-1.95,.78-3.14,.78-2.23-.26-3.14-.78Zm5-2.05c.54-.32,.95-.77,1.24-1.35s.44-1.26,.44-2.02v-4.99c0-.77-.15-1.44-.44-2.02s-.71-1.03-1.24-1.35-1.15-.47-1.86-.47-1.32,.16-1.86,.47-.95,.77-1.24,1.35-.44,1.26-.44,2.02v4.99c0,.77,.15,1.44,.44,2.02s.71,1.03,1.24,1.35,1.15,.47,1.86,.47,1.32-.16,1.86-.47Z" style="paint-order: stroke; fill: rgb(0, 0, 0);"/>
    <path class="cls-8" d="M255.65,415.63h2.39v17.04h-2.39v-17.04Zm1.2,14.77h9.75v2.27h-9.75v-2.27h0Z" style="paint-order: stroke; fill: rgb(0, 0, 0);"/>
    <path class="cls-8" d="M281.37,415.63h2.39v17.04h-2.39v-17.04Zm1.62,14.77h3.86c1.26,0,2.23-.33,2.92-.98s1.04-1.57,1.04-2.76v-5.02c0-1.19-.35-2.11-1.04-2.76s-1.67-.98-2.92-.98h-3.86v-2.27h3.79c1.37,0,2.54,.24,3.5,.71s1.71,1.17,2.21,2.09,.76,2.02,.76,3.3v4.83c0,1.29-.25,2.39-.76,3.3s-1.25,1.61-2.22,2.09-2.14,.71-3.51,.71h-3.77v-2.27h0Z" style="paint-order: stroke; fill: rgb(0, 0, 0);"/>
    <path class="cls-8" d="M311.4,432.61c-.73-.16-1.42-.39-2.06-.7s-1.23-.7-1.79-1.17l1.49-1.83c.65,.56,1.36,.98,2.14,1.27s1.63,.42,2.54,.42c1.23,0,2.19-.23,2.87-.69s1.02-1.1,1.02-1.94h0c0-.61-.15-1.08-.46-1.42s-.71-.61-1.2-.77-1.12-.32-1.89-.46c-.02,0-.05-.01-.08-.01s-.05,0-.08-.01l-.18-.04c-1.14-.2-2.07-.42-2.78-.66s-1.33-.7-1.83-1.35-.76-1.58-.76-2.78h0c0-1.07,.24-1.97,.71-2.71s1.16-1.31,2.07-1.71,2-.59,3.27-.59c.61,0,1.21,.07,1.8,.2s1.17,.33,1.75,.59,1.14,.59,1.69,.99l-1.36,1.9c-.65-.48-1.29-.83-1.94-1.07s-1.29-.36-1.94-.36c-1.16,0-2.07,.23-2.71,.7s-.97,1.12-.97,1.97h0c0,.6,.17,1.06,.5,1.39s.75,.58,1.24,.74,1.19,.33,2.07,.5c.03,0,.06,.01,.09,.02s.06,0,.09,.02c.04,0,.08,.02,.13,.02s.09,.02,.13,.02c1.03,.21,1.89,.46,2.58,.75s1.27,.76,1.73,1.4,.7,1.53,.7,2.64v.02c0,1.04-.25,1.93-.74,2.67-.49,.74-1.21,1.3-2.14,1.69s-2.06,.58-3.38,.58c-.82,0-1.6-.08-2.33-.23h0Z" style="paint-order: stroke; fill: rgb(0, 0, 0);"/>
    <path class="cls-8" d="M337.35,432.06c-.89-.52-1.59-1.27-2.08-2.23s-.74-2.07-.74-3.34v-4.68c0-1.27,.25-2.38,.74-3.34s1.19-1.71,2.08-2.23,1.93-.79,3.11-.79c.98,0,1.88,.21,2.7,.63s1.51,1.01,2.06,1.78,.92,1.65,1.12,2.66h-2.45c-.15-.53-.4-1.01-.74-1.42s-.76-.74-1.22-.97-.95-.34-1.45-.34c-.7,0-1.3,.17-1.83,.5s-.93,.81-1.22,1.41-.43,1.31-.43,2.12v4.68c0,.8,.14,1.5,.43,2.11s.7,1.08,1.22,1.41,1.13,.5,1.83,.5c.51,0,.99-.11,1.46-.32s.87-.52,1.22-.94,.6-.91,.74-1.48h2.45c-.2,1.01-.57,1.89-1.12,2.66-.55,.77-1.24,1.36-2.06,1.78s-1.71,.63-2.68,.63c-1.18,0-2.22-.26-3.11-.79h-.03Z" style="paint-order: stroke; fill: rgb(0, 0, 0);"/>
    <path class="cls-8" d="M361.46,415.63h2.39v17.04h-2.39v-17.04Zm1.49,7.51h9.46v2.27h-9.46v-2.27Zm8.19-7.51h2.39v17.04h-2.39v-17.04Z" style="paint-order: stroke; fill: rgb(0, 0, 0);"/>
    <path class="cls-8" d="M401.95,415.63h2.24v17.04h-2.33v-12.76l.12,.75-4.2,9.64h-1.66l-4.2-9.41,.12-.98v12.76h-2.33v-17.04h2.24l5,11.25,5-11.25h0Z" style="paint-order: stroke; fill: rgb(0, 0, 0);"/>
    <path class="cls-8" d="M422.76,432.67h-2.39v-17.04h2.39v17.04Z" style="paint-order: stroke; fill: rgb(0, 0, 0);"/>
    <path class="cls-8" d="M438.94,415.63h2.39v17.04h-2.39v-17.04Zm1.16,0h9.79v2.27h-9.79v-2.27Zm0,7.44h8.5v2.27h-8.5v-2.27Zm0,7.32h9.79v2.27h-9.79v-2.27Z" style="paint-order: stroke; fill: rgb(0, 0, 0);"/>
    <path class="cls-8" d="M465.24,415.63h2.39v17.04h-2.39v-17.04Zm1.62,14.77h3.86c1.26,0,2.23-.33,2.92-.98s1.04-1.57,1.04-2.76v-5.02c0-1.19-.35-2.11-1.04-2.76s-1.67-.98-2.92-.98h-3.86v-2.27h3.79c1.37,0,2.54,.24,3.5,.71s1.71,1.17,2.21,2.09,.76,2.02,.76,3.3v4.83c0,1.29-.25,2.39-.76,3.3s-1.25,1.61-2.22,2.09-2.14,.71-3.51,.71h-3.77v-2.27h0Z" style="paint-order: stroke; fill: rgb(0, 0, 0);"/>
    <path class="cls-8" d="M492.72,415.63h2.39v17.04h-2.39v-17.04Zm1.16,0h9.79v2.27h-9.79v-2.27Zm0,7.44h8.5v2.27h-8.5v-2.27Zm0,7.32h9.79v2.27h-9.79v-2.27Z" style="paint-order: stroke; fill: rgb(0, 0, 0);"/>
    <path class="cls-8" d="M523.66,415.63h2.04l6.28,17.04h-2.58l-4.72-13.75-4.72,13.75h-2.58l6.28-17.04Zm-3.39,11.03h8.96v2.27h-8.96v-2.27Z" style="paint-order: stroke; fill: rgb(0, 0, 0);"/>
    <path class="cls-8" d="M546.52,415.62h2.39v17.05h-2.39v-17.05Zm1.04,7.57h5.81c.45,0,.86-.11,1.21-.33s.62-.53,.81-.93,.29-.87,.29-1.39-.1-.99-.29-1.39-.46-.71-.81-.93-.75-.33-1.21-.33h-5.81v-2.27h5.72c.98,0,1.85,.2,2.6,.61s1.32,.98,1.73,1.73,.62,1.61,.62,2.58-.21,1.84-.62,2.58-.99,1.32-1.74,1.73-1.61,.61-2.58,.61h-5.72v-2.27h-.01Zm4.64,1.75l2.38-.54,4.36,8.27h-2.84l-3.9-7.73h0Z" style="paint-order: stroke; fill: rgb(0, 0, 0);"/>
    <path class="cls-8" d="M574.13,415.63h2.38v17.04h-2.38v-17.04Zm1.41,14.82h4.62c1.21,0,2.09-.23,2.65-.69s.83-1.11,.83-1.95v-.04c0-.58-.1-1.07-.3-1.49s-.51-.73-.94-.96-.98-.33-1.65-.33h-5.2v-2.16h5.2c.88,0,1.55-.21,2-.62s.67-1.03,.67-1.84-.25-1.49-.75-1.91-1.25-.63-2.25-.63h-4.88v-2.21h5.31c1.1,0,2.02,.19,2.77,.56s1.3,.91,1.66,1.59,.55,1.51,.55,2.46c0,.59-.11,1.13-.34,1.65s-.57,.95-1.04,1.31-1.04,.61-1.73,.73c.69,.1,1.28,.35,1.78,.73s.88,.87,1.15,1.45,.4,1.2,.4,1.88v.04c0,.92-.2,1.73-.61,2.44-.41,.71-.99,1.25-1.75,1.63s-1.64,.57-2.65,.57h-5.51v-2.21h.01Z" style="paint-order: stroke; fill: rgb(0, 0, 0);"/>
    <path class="cls-8" d="M601.58,415.63h2.39v17.04h-2.39v-17.04Zm1.16,0h9.79v2.27h-9.79v-2.27Zm0,7.44h8.5v2.27h-8.5v-2.27Zm0,7.32h9.79v2.27h-9.79v-2.27Z" style="paint-order: stroke; fill: rgb(0, 0, 0);"/>
    <path class="cls-8" d="M630.28,432.67h-2.39v-17.04h2.39v17.04Z" style="paint-order: stroke; fill: rgb(0, 0, 0);"/>
    <path class="cls-8" d="M645.05,415.63h12.02v2.27h-12.02v-2.27Zm4.82,1.39h2.39v15.64h-2.39v-15.64h0Z" style="paint-order: stroke; fill: rgb(0, 0, 0);"/>
    <path class="cls-8" d="M671.38,415.63h2.39v17.04h-2.39v-17.04Zm1.16,0h9.79v2.27h-9.79v-2.27Zm0,7.44h8.5v2.27h-8.5v-2.27Zm0,7.32h9.79v2.27h-9.79v-2.27Z" style="paint-order: stroke; fill: rgb(0, 0, 0);"/>
    <path class="cls-8" d="M697.68,415.63h2.17l8.33,13.17-.28,.3v-13.48h2.37v17.03h-2.19l-8.31-12.97,.28-.3v13.28h-2.37v-17.03Z" style="paint-order: stroke; fill: rgb(0, 0, 0);"/>
  </g>
</svg>