<?xml version="1.0" standalone="no"?>
<!DOCTYPE svg PUBLIC "-//W3C//DTD SVG 20010904//EN"
 "http://www.w3.org/TR/2001/REC-SVG-20010904/DTD/svg10.dtd">
<svg version="1.0" xmlns="http://www.w3.org/2000/svg"
 width="1056.000000pt" height="1056.000000pt" viewBox="0 0 1056.000000 1056.000000"
 preserveAspectRatio="xMidYMid meet">
<metadata>
Created by potrace 1.14, written by Peter Selinger 2001-2017
</metadata>
<g transform="translate(0.000000,1056.000000) scale(0.100000,-0.100000)"
fill="#000000" stroke="none">
<path d="M3294 9052 c-86 -97 -95 -108 -115 -129 -9 -10 -49 -56 -89 -103 -40
-47 -76 -87 -79 -90 -6 -5 -120 -137 -136 -158 -5 -7 -20 -23 -31 -35 -12 -12
-53 -58 -90 -102 -63 -73 -113 -130 -139 -159 -6 -6 -35 -40 -65 -75 -30 -36
-62 -72 -70 -81 -56 -63 -137 -156 -147 -171 -7 -9 -27 -32 -45 -51 -18 -19
-53 -58 -78 -88 -25 -29 -52 -61 -61 -69 -8 -9 -58 -65 -110 -126 -52 -60
-101 -117 -109 -125 -8 -9 -33 -38 -55 -64 -22 -26 -51 -60 -65 -75 -14 -15
-54 -60 -89 -101 -35 -41 -68 -76 -72 -78 -5 -2 -9 -10 -9 -18 0 -8 -7 -14
-15 -14 -8 0 -15 -7 -15 -15 0 -7 -6 -18 -13 -22 -6 -4 -37 -37 -67 -73 -30
-36 -60 -69 -66 -75 -5 -5 -39 -44 -75 -85 -35 -41 -66 -77 -69 -80 -3 -3 -34
-39 -69 -80 -36 -41 -70 -79 -76 -85 -5 -5 -33 -37 -60 -70 -28 -32 -57 -66
-65 -75 -8 -9 -35 -40 -60 -69 -25 -29 -56 -65 -70 -81 -27 -29 -27 -29 -170
-195 -104 -120 -115 -133 -163 -186 -18 -20 -54 -62 -82 -94 -27 -31 -61 -70
-75 -86 -14 -15 -42 -47 -62 -71 -20 -24 -49 -57 -63 -74 -15 -16 -34 -38 -44
-49 -10 -11 -53 -60 -95 -110 -43 -49 -84 -95 -92 -101 -8 -6 -14 -14 -14 -18
0 -3 -14 -20 -30 -38 -34 -35 -38 -24 45 -118 22 -25 65 -75 95 -110 30 -35
65 -75 77 -87 11 -13 36 -42 53 -63 18 -22 46 -55 64 -74 40 -44 78 -87 146
-166 30 -35 67 -77 82 -93 15 -16 42 -47 60 -70 18 -22 54 -63 79 -91 25 -28
92 -105 149 -171 57 -66 110 -127 119 -136 9 -9 36 -40 61 -69 25 -29 50 -58
55 -64 6 -6 39 -45 75 -86 36 -41 73 -83 84 -92 10 -10 16 -18 13 -18 -3 0 9
-15 26 -34 18 -19 53 -58 79 -87 l47 -53 43 46 c24 25 54 58 67 74 30 36 132
155 146 170 5 6 30 35 55 64 25 29 54 62 65 74 11 12 45 50 75 86 30 35 62 72
70 80 8 9 38 42 65 74 28 32 59 68 70 80 11 13 31 36 45 52 44 52 102 118 156
179 109 124 104 118 90 135 -43 50 -74 86 -96 110 -14 16 -38 45 -55 65 -16
20 -41 48 -55 63 -28 30 -203 230 -237 271 -25 30 -11 40 -123 -89 -66 -77
-109 -125 -146 -165 -11 -12 -30 -35 -42 -50 -12 -15 -50 -59 -84 -98 -35 -38
-73 -82 -86 -96 l-22 -26 -31 35 c-30 34 -89 103 -126 147 -11 12 -44 49 -74
83 -30 34 -58 68 -64 74 -5 6 -43 50 -84 96 -41 47 -81 92 -88 101 -11 13 -10
19 5 35 10 10 62 71 117 134 54 63 109 126 121 140 40 44 74 83 112 128 20 24
48 56 62 71 14 15 50 56 80 91 30 35 65 75 78 89 45 52 59 67 117 136 33 39
65 75 71 80 6 6 55 62 110 125 54 63 113 130 129 149 43 49 64 74 111 128 95
110 189 218 194 223 3 3 34 39 69 80 36 41 70 80 75 85 6 6 51 57 101 115 49
58 104 121 121 140 67 74 83 92 114 130 18 22 46 55 64 73 17 19 42 47 55 63
39 46 248 285 306 350 11 12 29 33 39 46 58 69 129 148 135 148 7 0 134 -142
251 -280 25 -29 54 -62 65 -74 11 -12 49 -55 84 -96 35 -41 68 -76 72 -78 12
-5 -6 -36 -39 -70 -15 -16 -45 -50 -67 -76 -22 -26 -55 -64 -72 -84 -18 -20
-33 -41 -33 -45 0 -5 -4 -5 -10 -2 -5 3 -10 1 -10 -5 0 -6 -12 -24 -27 -40
-16 -16 -37 -39 -48 -52 -45 -54 -131 -153 -148 -171 -21 -21 -27 -11 63 -109
23 -26 49 -57 58 -69 8 -11 26 -33 41 -48 14 -16 45 -50 68 -77 23 -27 55 -63
70 -80 15 -18 47 -54 70 -80 23 -27 53 -62 66 -77 l25 -28 24 24 c21 22 74 83
153 176 17 20 35 41 41 46 5 6 39 44 75 85 35 41 66 77 69 80 3 3 48 55 100
115 52 61 97 112 100 115 3 3 35 39 72 82 60 70 97 112 155 175 11 13 36 42
55 65 18 23 44 53 58 67 62 65 62 66 43 88 -10 11 -40 47 -68 79 -48 56 -124
143 -135 154 -3 3 -20 23 -39 45 -56 66 -144 166 -179 204 -19 20 -46 52 -60
71 -15 18 -38 46 -52 60 -14 15 -36 40 -50 56 -34 40 -153 176 -165 190 -5 6
-30 34 -55 64 -25 29 -52 60 -60 69 -18 18 -137 154 -168 191 -49 58 -166 192
-192 220 -8 9 -37 43 -65 75 -27 33 -52 62 -56 65 -4 3 -22 24 -42 47 l-35 42
-68 -77z"/>
<path d="M7190 9125 c0 -5 -15 -26 -33 -45 -17 -19 -47 -52 -66 -75 -29 -35
-116 -134 -176 -201 -11 -12 -36 -41 -55 -64 -19 -24 -42 -50 -50 -59 -9 -9
-45 -50 -80 -91 -36 -41 -69 -80 -75 -86 -5 -6 -26 -29 -45 -50 -19 -22 -75
-86 -125 -144 -49 -58 -99 -114 -110 -125 -11 -11 -46 -52 -79 -90 -80 -95
-155 -181 -192 -222 -18 -18 -46 -51 -64 -73 -17 -21 -42 -50 -53 -63 -12 -13
-47 -52 -77 -87 -30 -35 -59 -68 -65 -74 -5 -6 -28 -31 -49 -55 l-39 -44 23
-19 c12 -10 19 -18 16 -18 -3 0 2 -8 12 -18 18 -19 124 -140 155 -176 9 -12
28 -32 40 -46 13 -14 54 -61 92 -105 38 -44 71 -82 74 -85 3 -3 31 -34 61 -70
30 -36 63 -74 73 -85 10 -11 33 -37 50 -58 18 -22 49 -57 69 -79 21 -22 55
-61 75 -86 21 -24 49 -57 63 -72 14 -15 43 -49 65 -74 22 -26 52 -61 66 -77
l27 -30 23 24 c22 22 75 83 154 176 17 20 35 41 41 46 5 6 39 44 75 85 35 41
66 77 69 80 3 3 31 35 63 71 l57 66 -21 24 c-11 13 -44 51 -72 83 -29 33 -60
69 -70 80 -9 12 -27 32 -40 46 -13 14 -52 59 -87 100 -36 41 -67 77 -70 80 -3
3 -31 35 -63 71 l-57 66 42 49 c24 27 45 51 48 54 3 3 32 37 65 75 33 39 70
81 82 95 12 14 32 36 43 50 29 34 117 133 163 184 l37 41 33 -35 c17 -20 59
-67 92 -104 33 -38 69 -79 80 -91 11 -13 38 -44 60 -71 22 -26 55 -63 73 -82
17 -19 32 -37 32 -42 0 -5 4 -10 8 -12 8 -3 26 -22 152 -168 30 -35 60 -68 65
-74 6 -6 39 -45 74 -86 36 -41 74 -85 85 -96 12 -12 30 -32 40 -45 38 -48 141
-164 160 -181 10 -10 16 -18 13 -18 -3 0 7 -12 21 -28 30 -30 85 -93 152 -172
25 -29 56 -65 70 -80 14 -15 48 -54 75 -86 28 -31 59 -68 70 -80 11 -12 40
-46 65 -74 25 -29 50 -58 55 -64 6 -6 85 -96 175 -201 91 -104 169 -195 175
-201 5 -6 33 -37 60 -69 28 -32 59 -68 70 -79 11 -12 47 -53 80 -91 33 -39 62
-72 65 -75 3 -3 34 -39 69 -80 35 -41 71 -82 80 -91 9 -9 25 -27 36 -40 11
-13 41 -49 67 -80 l47 -55 -27 -30 c-27 -30 -126 -145 -206 -237 -22 -27 -48
-56 -56 -65 -9 -10 -47 -53 -85 -97 -39 -44 -78 -89 -88 -100 l-18 -20 -21 25
c-11 14 -39 46 -62 71 -22 25 -60 68 -82 95 -23 27 -57 66 -75 86 -19 20 -43
47 -53 60 -23 27 -131 151 -164 187 l-23 25 -27 -30 c-15 -17 -54 -62 -87
-100 -33 -38 -64 -74 -70 -80 -5 -6 -32 -38 -60 -70 -27 -32 -61 -70 -75 -85
-14 -15 -43 -49 -65 -75 -22 -26 -51 -59 -66 -74 -29 -31 -27 -42 17 -90 18
-19 42 -46 54 -60 63 -73 117 -136 135 -156 11 -12 43 -48 70 -80 28 -32 59
-68 70 -80 27 -29 52 -59 165 -189 89 -103 145 -167 180 -205 8 -9 37 -43 65
-75 27 -33 64 -76 82 -95 17 -19 45 -51 62 -70 l31 -35 27 30 c36 42 132 151
168 190 17 18 39 44 49 57 32 39 139 162 150 173 6 6 24 26 40 45 32 39 125
145 171 196 17 18 37 42 45 52 8 11 40 47 70 82 30 34 65 74 78 89 12 14 33
37 45 51 13 14 52 59 87 100 35 41 71 82 80 91 22 24 122 139 144 167 11 14
29 34 40 46 12 12 35 38 51 57 64 76 141 163 168 191 29 31 29 34 -9 74 -5 6
-30 35 -55 64 -24 29 -53 62 -64 74 -11 12 -47 53 -80 91 -33 39 -62 72 -65
75 -3 3 -34 39 -70 80 -36 41 -70 80 -76 86 -5 6 -30 35 -55 64 -24 29 -51 60
-60 69 -16 16 -191 218 -225 259 -10 13 -30 36 -44 51 -14 14 -52 58 -85 96
-33 37 -69 79 -80 91 -11 12 -38 44 -60 70 -22 26 -53 62 -70 80 -16 18 -44
50 -61 71 -18 21 -47 54 -65 74 -19 20 -45 49 -58 65 -86 102 -127 150 -137
159 -6 5 -58 64 -114 130 -57 66 -106 122 -109 125 -3 3 -33 37 -66 75 -33 39
-64 75 -70 81 -5 6 -35 39 -65 74 -126 146 -144 165 -152 168 -4 2 -8 7 -8 12
0 5 -15 24 -32 42 -18 19 -48 52 -66 74 -18 21 -57 66 -85 98 -135 155 -215
247 -252 291 -22 26 -49 57 -61 68 -11 12 -49 56 -85 97 -35 41 -68 80 -74 86
-5 6 -30 34 -55 64 -25 29 -52 60 -61 69 -8 9 -46 52 -84 96 -38 44 -74 85
-80 91 -5 6 -32 37 -60 69 -27 33 -59 69 -70 81 -11 12 -42 48 -70 80 -144
167 -205 232 -205 219z"/>
<path d="M2829 6319 c-24 -28 -53 -61 -64 -74 -30 -33 -85 -97 -130 -149 -22
-26 -53 -63 -70 -81 -16 -18 -52 -59 -80 -91 -27 -32 -57 -65 -66 -74 -18 -19
-14 -36 15 -64 12 -12 48 -52 81 -91 33 -38 62 -72 65 -75 3 -3 48 -54 100
-115 52 -60 100 -114 107 -118 7 -4 13 -12 13 -17 0 -4 15 -23 33 -42 17 -19
55 -60 82 -92 28 -33 62 -72 77 -88 15 -16 42 -47 60 -70 18 -22 42 -50 54
-62 11 -11 47 -52 80 -91 32 -38 68 -79 79 -91 11 -12 39 -43 62 -70 22 -27
55 -65 73 -84 17 -19 46 -53 63 -74 18 -22 37 -45 44 -51 7 -7 44 -50 84 -96
39 -46 75 -86 78 -89 3 -3 33 -36 66 -75 32 -38 66 -77 75 -86 8 -9 33 -37 55
-64 22 -26 47 -55 56 -64 8 -9 44 -50 80 -91 35 -41 66 -77 69 -80 3 -3 34
-39 70 -80 35 -41 71 -82 80 -91 8 -8 33 -37 55 -64 22 -26 54 -63 70 -81 17
-18 48 -54 70 -79 22 -26 51 -60 65 -75 14 -15 41 -47 61 -71 21 -24 48 -56
60 -70 22 -23 106 -119 152 -173 10 -12 42 -48 71 -81 29 -33 66 -76 82 -95
16 -19 36 -42 44 -51 8 -8 24 -26 36 -40 39 -47 177 -205 213 -245 20 -22 61
-69 91 -104 30 -35 60 -68 65 -74 12 -14 130 -150 165 -190 14 -16 30 -34 35
-40 6 -6 39 -45 75 -86 36 -41 70 -80 75 -86 6 -6 33 -37 60 -69 28 -33 59
-69 70 -81 29 -32 63 -71 130 -149 61 -70 103 -119 140 -161 11 -12 44 -50 74
-83 29 -34 58 -61 65 -60 6 0 26 19 45 42 18 23 57 69 86 102 88 99 105 120
105 128 0 5 5 5 10 2 6 -3 10 -2 10 4 0 6 21 34 46 63 26 29 58 67 73 83 14
17 43 50 64 73 l38 43 -72 82 c-39 45 -87 100 -108 122 -20 22 -61 70 -91 105
-30 36 -64 74 -75 85 -11 11 -40 45 -65 75 -24 30 -58 69 -75 87 -16 17 -39
42 -49 55 -25 30 -199 231 -206 238 -4 4 -75 86 -161 185 -14 16 -48 55 -75
86 -27 30 -76 86 -109 124 -33 38 -69 79 -80 91 -11 12 -31 35 -44 50 -13 16
-50 58 -81 94 -31 36 -65 75 -76 88 -10 13 -32 38 -49 56 -16 19 -46 52 -65
75 -19 23 -46 54 -60 69 -14 15 -50 56 -80 91 -30 35 -62 72 -70 81 -8 9 -40
46 -70 81 -58 66 -100 114 -169 190 -22 25 -41 51 -41 58 0 6 -4 11 -8 11 -7
0 -90 92 -255 284 -10 11 -40 46 -67 76 -27 30 -58 66 -70 80 -50 58 -117 134
-141 161 -14 15 -44 49 -65 75 -21 25 -48 56 -59 68 -11 12 -74 85 -140 161
-66 76 -133 153 -150 171 -16 18 -39 43 -49 56 -19 23 -133 154 -151 174 -5 6
-29 33 -52 61 -24 27 -53 61 -65 75 -49 53 -144 162 -163 186 -11 14 -31 37
-45 52 -23 25 -110 124 -153 174 -24 29 -90 105 -122 141 -14 17 -45 51 -67
78 -23 26 -45 47 -48 47 -4 0 -27 -23 -51 -51z"/>
<path d="M7638 6329 c-21 -21 -38 -41 -38 -44 0 -2 -12 -17 -27 -33 -16 -16
-75 -84 -133 -150 -57 -67 -108 -122 -112 -122 -4 0 -8 -6 -8 -14 0 -8 -4 -16
-9 -18 -4 -1 -37 -37 -72 -78 -35 -41 -69 -79 -75 -85 -6 -5 -37 -41 -70 -80
-32 -38 -61 -72 -64 -75 -3 -3 -51 -57 -105 -120 -55 -63 -104 -120 -110 -126
-5 -6 -35 -40 -65 -75 -30 -35 -62 -70 -70 -79 -14 -15 -106 -120 -160 -184
-14 -16 -32 -37 -40 -46 -8 -9 -40 -45 -70 -81 -30 -35 -64 -74 -75 -85 -17
-19 -62 -70 -138 -158 -10 -12 -39 -45 -65 -75 -60 -68 -66 -76 -127 -147 -27
-32 -57 -65 -65 -73 -9 -9 -43 -47 -75 -86 -33 -38 -70 -81 -82 -94 -25 -28
-26 -26 59 -122 31 -35 65 -73 75 -85 10 -12 43 -49 73 -84 30 -35 63 -72 73
-84 27 -31 111 -126 146 -166 l31 -35 36 40 c20 22 46 51 57 65 12 14 51 59
87 100 36 41 76 88 90 104 14 16 36 41 50 56 14 16 32 36 41 46 42 51 203 235
244 280 17 18 37 42 45 52 8 11 33 40 55 64 22 25 65 74 95 109 30 35 65 74
78 87 12 12 22 25 22 28 0 3 10 15 23 28 12 12 45 49 72 81 28 32 68 79 90
103 22 25 48 54 58 66 10 12 37 44 61 71 24 28 65 75 91 105 26 30 61 70 77
88 17 19 60 68 96 110 37 43 69 79 72 82 3 3 50 57 105 120 54 63 102 117 105
120 3 3 30 34 60 69 30 36 67 78 82 95 22 24 25 33 15 45 -19 24 -50 61 -72
85 -31 35 -138 156 -158 180 -31 37 -102 119 -112 130 -6 6 -35 39 -64 74 -30
34 -57 62 -60 62 -3 -1 -23 -19 -43 -41z"/>
<path d="M4303 2501 c-10 -9 -38 -41 -63 -70 -51 -61 -104 -123 -138 -159 -12
-14 -41 -48 -65 -75 -23 -28 -47 -55 -52 -61 -6 -6 -41 -45 -77 -87 -60 -69
-64 -77 -51 -95 14 -20 70 -86 113 -134 14 -15 50 -56 80 -91 84 -97 149 -170
186 -212 19 -21 34 -43 34 -49 0 -6 3 -8 7 -5 3 4 14 -4 23 -18 16 -24 17 -24
33 -8 33 34 82 90 117 132 19 23 46 55 60 70 14 15 52 58 85 96 33 38 80 92
105 120 107 122 100 110 82 136 -9 13 -24 31 -32 39 -9 8 -46 49 -81 90 -35
41 -75 88 -89 104 -14 16 -30 34 -35 40 -6 6 -39 45 -75 86 -36 41 -67 77 -70
80 -3 3 -21 24 -42 47 -35 39 -37 40 -55 24z"/>
</g>
</svg>
